<svg id="logo" xmlns="http://www.w3.org/2000/svg" viewBox="0 0 100 100"><style>.st0{fill:url(#SVGID_1_)}.st1{fill:#fff}</style><linearGradient id="SVGID_1_" gradientUnits="userSpaceOnUse" x1="50" x2="50" y2="100"><stop offset="0" stop-color="#b7c"/><stop offset="1" stop-color="#97f"/></linearGradient><path class="st0" d="M0 0h100v100H0z"/><path class="st1" d="M35.54 53.99h-3.96v16.74H23.9V29.27h10.38c10.38 0 15.24 4.32 15.24 12.18 0 5.46-2.22 8.82-7.14 10.98l9.3 18.3h-8.34l-7.8-16.74zm-.9-5.52c4.8 0 6.96-2.16 6.96-7.02 0-4.5-2.1-6.6-7.38-6.6h-2.64v13.62h3.06zm41.76-13.5H63.56v11.88h11.22v5.64H63.56v12.48H77.3v5.76H55.88V29.27h21.36l-.84 5.7z"/></svg>
